<svg xmlns="http://www.w3.org/2000/svg" xmlns:xlink="http://www.w3.org/1999/xlink" viewBox="0,0,256,256" width="100px" height="100px" fill-rule="nonzero"><g fill="#2b3467" fill-rule="nonzero" stroke="none" stroke-width="1" stroke-linecap="butt" stroke-linejoin="miter" stroke-miterlimit="10" stroke-dasharray="" stroke-dashoffset="0" font-family="none" font-weight="none" font-size="none" text-anchor="none" style="mix-blend-mode: normal"><g transform="scale(5.12,5.12)"><path d="M12,1c-0.52344,0 -1.05859,0.18359 -1.4375,0.5625c-0.37891,0.37891 -0.5625,0.91406 -0.5625,1.4375v44c0,0.52344 0.18359,1.05859 0.5625,1.4375c0.37891,0.37891 0.91406,0.5625 1.4375,0.5625h26c0.52344,0 1.05859,-0.18359 1.4375,-0.5625c0.37891,-0.37891 0.5625,-0.91406 0.5625,-1.4375v-44c0,-0.52344 -0.18359,-1.05859 -0.5625,-1.4375c-0.37891,-0.37891 -0.91406,-0.5625 -1.4375,-0.5625zM12,3h26v44h-26zM14,5v24h22v-24zM16,7h18v20h-18zM25,30c-1.10547,0 -2,0.89453 -2,2c0,1.10547 0.89453,2 2,2c1.10547,0 2,-0.89453 2,-2c0,-1.10547 -0.89453,-2 -2,-2zM18,35c-2.21094,0 -4,1.78906 -4,4v2c0,2.21094 1.78906,4 4,4h14c2.21094,0 4,-1.78906 4,-4v-2c0,-2.21094 -1.78906,-4 -4,-4zM18,37h2v2h-4c0,-1.19141 0.80859,-2 2,-2zM22,37h6v2h-6zM30,37h2c1.19141,0 2,0.80859 2,2h-4zM16,41h4v2h-2c-1.19141,0 -2,-0.80859 -2,-2zM22,41h6v2h-6zM30,41h4c0,1.19141 -0.80859,2 -2,2h-2z"></path></g></g></svg>